<svg xmlns="http://www.w3.org/2000/svg" viewBox="0 0 600 300">
  <!-- Background -->
  <rect width="600" height="300" fill="#1E1E1E" rx="10" ry="10"/>
  
  <!-- Basil -->
  <g transform="translate(150, 150)">
    <!-- Stems -->
    <path d="M0,100 L0,50" stroke="#8BC34A" stroke-width="4" fill="none"/>
    <path d="M0,60 L-20,40" stroke="#8BC34A" stroke-width="2" fill="none"/>
    <path d="M0,60 L20,40" stroke="#8BC34A" stroke-width="2" fill="none"/>
    <path d="M0,70 L-25,60" stroke="#8BC34A" stroke-width="2" fill="none"/>
    <path d="M0,70 L25,60" stroke="#8BC34A" stroke-width="2" fill="none"/>
    <path d="M0,80 L-15,80" stroke="#8BC34A" stroke-width="2" fill="none"/>
    <path d="M0,80 L15,80" stroke="#8BC34A" stroke-width="2" fill="none"/>
    
    <!-- Leaves -->
    <ellipse cx="0" cy="35" rx="15" ry="10" fill="#388E3C"/>
    <ellipse cx="-20" cy="40" rx="12" ry="8" fill="#388E3C"/>
    <ellipse cx="20" cy="40" rx="12" ry="8" fill="#388E3C"/>
    <ellipse cx="-25" cy="60" rx="10" ry="7" fill="#388E3C"/>
    <ellipse cx="25" cy="60" rx="10" ry="7" fill="#388E3C"/>
    <ellipse cx="-15" cy="80" rx="8" ry="6" fill="#388E3C"/>
    <ellipse cx="15" cy="80" rx="8" ry="6" fill="#388E3C"/>
    
    <!-- Leaf details -->
    <path d="M0,35 C-6,32 -6,38 0,35 Z" fill="#2E7D32"/>
    <path d="M-20,40 C-24,38 -24,42 -20,40 Z" fill="#2E7D32"/>
    <path d="M20,40 C16,38 16,42 20,40 Z" fill="#2E7D32"/>
    
    <!-- Label -->
    <text x="0" y="130" font-family="Arial" font-size="18" fill="white" text-anchor="middle">Basil</text>
  </g>
  
  <!-- Cilantro -->
  <g transform="translate(300, 150)">
    <!-- Stems -->
    <path d="M0,100 L0,60" stroke="#8BC34A" stroke-width="3" fill="none"/>
    <path d="M0,65 L-15,45" stroke="#8BC34A" stroke-width="2" fill="none"/>
    <path d="M0,65 L15,45" stroke="#8BC34A" stroke-width="2" fill="none"/>
    <path d="M-15,45 L-30,35" stroke="#8BC34A" stroke-width="1" fill="none"/>
    <path d="M-15,45 L-25,50" stroke="#8BC34A" stroke-width="1" fill="none"/>
    <path d="M15,45 L30,35" stroke="#8BC34A" stroke-width="1" fill="none"/>
    <path d="M15,45 L25,50" stroke="#8BC34A" stroke-width="1" fill="none"/>
    <path d="M0,75 L-20,70" stroke="#8BC34A" stroke-width="2" fill="none"/>
    <path d="M0,75 L20,70" stroke="#8BC34A" stroke-width="2" fill="none"/>
    
    <!-- Leaves -->
    <path d="M-30,35 C-35,30 -32,25 -28,27 C-25,25 -20,30 -22,33 Z" fill="#66BB6A"/>
    <path d="M-25,50 C-30,48 -28,42 -24,45 C-20,43 -18,48 -21,50 Z" fill="#66BB6A"/>
    <path d="M30,35 C35,30 32,25 28,27 C25,25 20,30 22,33 Z" fill="#66BB6A"/>
    <path d="M25,50 C30,48 28,42 24,45 C20,43 18,48 21,50 Z" fill="#66BB6A"/>
    <path d="M-20,70 C-25,68 -23,62 -19,65 C-15,63 -13,68 -16,70 Z" fill="#66BB6A"/>
    <path d="M20,70 C25,68 23,62 19,65 C15,63 13,68 16,70 Z" fill="#66BB6A"/>
    <path d="M0,60 C-5,55 -3,50 0,52 C3,50 5,55 0,60 Z" fill="#66BB6A"/>
    
    <!-- Label -->
    <text x="0" y="130" font-family="Arial" font-size="18" fill="white" text-anchor="middle">Cilantro</text>
  </g>
  
  <!-- Parsley -->
  <g transform="translate(450, 150)">
    <!-- Stems -->
    <path d="M0,100 L0,55" stroke="#8BC34A" stroke-width="4" fill="none"/>
    <path d="M0,60 L-25,45" stroke="#8BC34A" stroke-width="2" fill="none"/>
    <path d="M0,60 L25,45" stroke="#8BC34A" stroke-width="2" fill="none"/>
    <path d="M-25,45 L-35,30" stroke="#8BC34A" stroke-width="1.5" fill="none"/>
    <path d="M-25,45 L-15,30" stroke="#8BC34A" stroke-width="1.5" fill="none"/>
    <path d="M25,45 L35,30" stroke="#8BC34A" stroke-width="1.5" fill="none"/>
    <path d="M25,45 L15,30" stroke="#8BC34A" stroke-width="1.5" fill="none"/>
    <path d="M0,70 L-20,65" stroke="#8BC34A" stroke-width="2" fill="none"/>
    <path d="M0,70 L20,65" stroke="#8BC34A" stroke-width="2" fill="none"/>
    <path d="M0,80 L-15,85" stroke="#8BC34A" stroke-width="2" fill="none"/>
    <path d="M0,80 L15,85" stroke="#8BC34A" stroke-width="2" fill="none"/>
    
    <!-- Leaves -->
    <path d="M-35,30 C-40,25 -38,18 -34,20 C-30,16 -28,22 -32,26 Z" fill="#4CAF50"/>
    <path d="M-15,30 C-20,25 -18,18 -14,20 C-10,16 -8,22 -12,26 Z" fill="#4CAF50"/>
    <path d="M35,30 C40,25 38,18 34,20 C30,16 28,22 32,26 Z" fill="#4CAF50"/>
    <path d="M15,30 C20,25 18,18 14,20 C10,16 8,22 12,26 Z" fill="#4CAF50"/>
    <path d="M-20,65 C-25,60 -23,54 -19,56 C-15,52 -13,58 -17,62 Z" fill="#4CAF50"/>
    <path d="M20,65 C25,60 23,54 19,56 C15,52 13,58 17,62 Z" fill="#4CAF50"/>
    <path d="M-15,85 C-20,83 -18,77 -14,79 C-10,76 -8,81 -12,84 Z" fill="#4CAF50"/>
    <path d="M15,85 C20,83 18,77 14,79 C10,76 8,81 12,84 Z" fill="#4CAF50"/>
    
    <!-- Label -->
    <text x="0" y="130" font-family="Arial" font-size="18" fill="white" text-anchor="middle">Parsley</text>
  </g>
</svg>
