<?xml version="1.0" encoding="UTF-8" standalone="no"?>
<svg
   xmlns:dc="http://purl.org/dc/elements/1.1/"
   xmlns:cc="http://creativecommons.org/ns#"
   xmlns:rdf="http://www.w3.org/1999/02/22-rdf-syntax-ns#"
   xmlns:svg="http://www.w3.org/2000/svg"
   xmlns="http://www.w3.org/2000/svg"
   xmlns:sodipodi="http://sodipodi.sourceforge.net/DTD/sodipodi-0.dtd"
   xmlns:inkscape="http://www.inkscape.org/namespaces/inkscape"
   viewBox="0 0 1242 2208"
   version="1.1"
   id="svg124"
   sodipodi:docname="splash-screen_ 1242x2208px.svg"
   inkscape:version="0.92.3 (2405546, 2018-03-11)">
  <metadata
     id="metadata130">
    <rdf:RDF>
      <cc:Work
         rdf:about="">
        <dc:format>image/svg+xml</dc:format>
        <dc:type
           rdf:resource="http://purl.org/dc/dcmitype/StillImage" />
      </cc:Work>
    </rdf:RDF>
  </metadata>
  <defs
     id="defs128" />
  <sodipodi:namedview
     pagecolor="#ffffff"
     bordercolor="#666666"
     borderopacity="1"
     objecttolerance="10"
     gridtolerance="10"
     guidetolerance="10"
     inkscape:pageopacity="0"
     inkscape:pageshadow="2"
     inkscape:window-width="958"
     inkscape:window-height="1018"
     id="namedview126"
     showgrid="false"
     inkscape:zoom="0.10688406"
     inkscape:cx="621"
     inkscape:cy="1104"
     inkscape:window-x="172"
     inkscape:window-y="0"
     inkscape:window-maximized="0"
     inkscape:current-layer="svg124" />
  <!-- Dark Background -->
  <rect
     width="1242"
     height="2208"
     fill="#121212"
     id="rect2"
     inkscape:export-filename="C:\Users\Jorge\PycharmProjects\PlantGardenApp\assets\splash.png"
     inkscape:export-xdpi="96"
     inkscape:export-ydpi="96" />
  <!-- App Name -->
  <text
     x="621"
     y="1000"
     font-family="Arial"
     font-size="80"
     font-weight="bold"
     fill="white"
     text-anchor="middle"
     id="text4"
     inkscape:export-filename="C:\Users\Jorge\PycharmProjects\PlantGardenApp\assets\splash.png"
     inkscape:export-xdpi="96"
     inkscape:export-ydpi="96">Garden Planner</text>
  <!-- Center Icon -->
  <g
     transform="translate(621, 800) scale(1.2)"
     id="g114"
     inkscape:export-filename="C:\Users\Jorge\PycharmProjects\PlantGardenApp\assets\splash.png"
     inkscape:export-xdpi="96"
     inkscape:export-ydpi="96">
    <!-- Garden Grid -->
    <rect
       x="-125"
       y="-125"
       width="250"
       height="250"
       fill="#8D6E63"
       rx="20"
       ry="20"
       id="rect6" />
    <!-- Grid Lines - Vertical -->
    <line
       x1="-42"
       y1="-125"
       x2="-42"
       y2="125"
       stroke="#5D4037"
       stroke-width="6"
       id="line8" />
    <line
       x1="42"
       y1="-125"
       x2="42"
       y2="125"
       stroke="#5D4037"
       stroke-width="6"
       id="line10" />
    <!-- Grid Lines - Horizontal -->
    <line
       x1="-125"
       y1="-42"
       x2="125"
       y2="-42"
       stroke="#5D4037"
       stroke-width="6"
       id="line12" />
    <line
       x1="-125"
       y1="42"
       x2="125"
       y2="42"
       stroke="#5D4037"
       stroke-width="6"
       id="line14" />
    <!-- Plants -->
    <g
       transform="translate(-84, -84)"
       id="g28">
      <!-- Tomato -->
      <circle
         cx="0"
         cy="0"
         r="30"
         fill="#F44336"
         id="circle16" />
      <path
         d="M0,-20 L0,-30"
         stroke="#8D6E63"
         stroke-width="5"
         fill="none"
         id="path18" />
      <path
         d="M0,-30 L-10,-40"
         stroke="#4CAF50"
         stroke-width="3"
         fill="none"
         id="path20" />
      <path
         d="M0,-30 L10,-40"
         stroke="#4CAF50"
         stroke-width="3"
         fill="none"
         id="path22" />
      <ellipse
         cx="-10"
         cy="-40"
         rx="7"
         ry="4"
         fill="#4CAF50"
         transform="rotate(-30, -10, -40)"
         id="ellipse24" />
      <ellipse
         cx="10"
         cy="-40"
         rx="7"
         ry="4"
         fill="#4CAF50"
         transform="rotate(30, 10, -40)"
         id="ellipse26" />
    </g>
    <g
       transform="translate(0, -84)"
       id="g34">
      <!-- Lettuce -->
      <path
         d="M0,20 C-20,20 -30,10 -35,0 C-25,5 -15,10 -5,0 C0,10 5,15 15,5 C20,15 25,10 35,0 C30,10 20,20 0,20 Z"
         fill="#8BC34A"
         id="path30" />
      <path
         d="M0,15 C-15,15 -20,5 -25,-5 C-15,0 -10,5 0,-5 C10,5 15,0 25,-5 C20,5 15,15 0,15 Z"
         fill="#7CB342"
         id="path32" />
    </g>
    <g
       transform="translate(84, -84)"
       id="g44">
      <!-- Carrot -->
      <path
         d="M0,-15 C-5,0 -8,10 -5,25 C-2,35 10,35 13,25 C16,10 13,0 8,-15 Z"
         fill="#FF9800"
         id="path36" />
      <path
         d="M3,-15 C-3,-25 -6,-35 -8,-40"
         stroke="#4CAF50"
         stroke-width="3"
         fill="none"
         id="path38" />
      <path
         d="M3,-15 C3,-25 4,-35 6,-40"
         stroke="#4CAF50"
         stroke-width="3"
         fill="none"
         id="path40" />
      <path
         d="M3,-15 C9,-25 12,-35 14,-40"
         stroke="#4CAF50"
         stroke-width="3"
         fill="none"
         id="path42" />
    </g>
    <g
       transform="translate(-84, 0)"
       id="g54">
      <!-- Garlic -->
      <ellipse
         cx="0"
         cy="0"
         rx="25"
         ry="30"
         fill="#F5F5F5"
         id="ellipse46" />
      <path
         d="M-10,-15 Q-5,-25 0,-30 Q5,-25 10,-15"
         fill="none"
         stroke="#E0E0E0"
         stroke-width="1.5"
         id="path48" />
      <ellipse
         cx="-7"
         cy="-5"
         rx="8"
         ry="15"
         fill="#F8F8F8"
         id="ellipse50" />
      <ellipse
         cx="7"
         cy="-5"
         rx="8"
         ry="15"
         fill="#F8F8F8"
         id="ellipse52" />
    </g>
    <g
       transform="translate(0, 0)"
       id="g66">
      <!-- Broccoli -->
      <rect
         x="-5"
         y="5"
         width="10"
         height="25"
         fill="#8BC34A"
         id="rect56" />
      <circle
         cx="0"
         cy="-5"
         r="20"
         fill="#2E7D32"
         id="circle58" />
      <circle
         cx="-10"
         cy="-10"
         r="7"
         fill="#388E3C"
         id="circle60" />
      <circle
         cx="0"
         cy="-15"
         r="7"
         fill="#388E3C"
         id="circle62" />
      <circle
         cx="10"
         cy="-10"
         r="7"
         fill="#388E3C"
         id="circle64" />
    </g>
    <g
       transform="translate(84, 0)"
       id="g76">
      <!-- Pumpkin -->
      <circle
         cx="0"
         cy="0"
         r="25"
         fill="#FF9800"
         id="circle68" />
      <path
         d="M-25,0 C-20,-25 20,-25 25,0"
         fill="none"
         stroke="#F57C00"
         stroke-width="3"
         id="path70" />
      <path
         d="M-15,0 C-10,-15 10,-15 15,0"
         fill="none"
         stroke="#F57C00"
         stroke-width="3"
         id="path72" />
      <path
         d="M-5,0 C-2,-5 2,-5 5,0"
         fill="none"
         stroke="#F57C00"
         stroke-width="3"
         id="path74" />
    </g>
    <g
       transform="translate(-84, 84)"
       id="g88">
      <!-- Onion -->
      <ellipse
         cx="0"
         cy="0"
         rx="25"
         ry="25"
         fill="#FFA726"
         id="ellipse78" />
      <path
         d="M-15,-15 Q-5,-25 0,-30 Q5,-25 15,-15"
         fill="none"
         stroke="#E65100"
         stroke-width="1.5"
         id="path80" />
      <path
         d="M0,-30 C-3,-33 -3,-37 -3,-42"
         stroke="#4CAF50"
         stroke-width="3"
         fill="none"
         id="path82" />
      <path
         d="M0,-30 C0,-33 0,-37 0,-45"
         stroke="#4CAF50"
         stroke-width="3"
         fill="none"
         id="path84" />
      <path
         d="M0,-30 C3,-33 3,-37 3,-42"
         stroke="#4CAF50"
         stroke-width="3"
         fill="none"
         id="path86" />
    </g>
    <g
       transform="translate(0, 84)"
       id="g100">
      <!-- Cabbage -->
      <circle
         cx="0"
         cy="0"
         r="25"
         fill="#4CAF50"
         id="circle90" />
      <circle
         cx="0"
         cy="0"
         r="20"
         fill="#66BB6A"
         id="circle92" />
      <circle
         cx="0"
         cy="0"
         r="15"
         fill="#81C784"
         id="circle94" />
      <path
         d="M-15,-5 C-10,-8 -5,-8 0,-5 C5,-8 10,-8 15,-5"
         fill="none"
         stroke="#388E3C"
         stroke-width="1.5"
         id="path96" />
      <path
         d="M-12,5 C-7,8 -2,8 0,5 C2,8 7,8 12,5"
         fill="none"
         stroke="#388E3C"
         stroke-width="1.5"
         id="path98" />
    </g>
    <g
       transform="translate(84, 84)"
       id="g112">
      <!-- Cucumber -->
      <ellipse
         cx="0"
         cy="0"
         rx="15"
         ry="25"
         fill="#66BB6A"
         id="ellipse102" />
      <path
         d="M-10,-15 C-5,-18 5,-18 10,-15"
         fill="none"
         stroke="#43A047"
         stroke-width="1"
         id="path104" />
      <path
         d="M-10,-5 C-5,-8 5,-8 10,-5"
         fill="none"
         stroke="#43A047"
         stroke-width="1"
         id="path106" />
      <path
         d="M-10,5 C-5,2 5,2 10,5"
         fill="none"
         stroke="#43A047"
         stroke-width="1"
         id="path108" />
      <path
         d="M-10,15 C-5,12 5,12 10,15"
         fill="none"
         stroke="#43A047"
         stroke-width="1"
         id="path110" />
    </g>
  </g>
  <!-- Loading indicator -->
  <g
     transform="translate(621, 1080)"
     id="g120"
     inkscape:export-filename="C:\Users\Jorge\PycharmProjects\PlantGardenApp\assets\splash.png"
     inkscape:export-xdpi="96"
     inkscape:export-ydpi="96">
    <rect
       x="-50"
       y="0"
       width="100"
       height="8"
       rx="4"
       ry="4"
       fill="#333333"
       id="rect116" />
    <rect
       x="-50"
       y="0"
       width="40"
       height="8"
       rx="4"
       ry="4"
       fill="#4CAF50"
       id="rect118">
      <animate
         attributeName="x"
         values="-50;10;-50"
         dur="1.5s"
         repeatCount="indefinite" />
    </rect>
  </g>
  <!-- Small text at bottom -->
  <text
     x="621"
     y="2120"
     id="text122" />
</svg>
